<svg width="26" height="26" viewBox="0 0 26 26" fill="none" xmlns="http://www.w3.org/2000/svg">
<path d="M19.7078 25.0025H6.31221C5.20331 25.0101 4.11236 24.7224 3.15138 24.1688C2.19041 23.6152 1.39403 22.8158 0.844025 21.8525C0.291344 20.9093 0 19.8358 0 18.7425C0 17.6492 0.291344 16.5757 0.844025 15.6325L7.5718 4.12252C8.12666 3.17225 8.92068 2.38395 9.87481 1.83611C10.8289 1.28827 11.9099 1 13.01 1C14.1101 1 15.1911 1.28827 16.1452 1.83611C17.0993 2.38395 17.8933 3.17225 18.4482 4.12252L25.156 15.6325C25.7087 16.5757 26 17.6492 26 18.7425C26 19.8358 25.7087 20.9093 25.156 21.8525C24.6076 22.8128 23.8144 23.6103 22.8573 24.1637C21.9001 24.7171 20.8133 25.0066 19.7078 25.0025ZM13.01 3.00252C12.2595 2.9958 11.5207 3.18852 10.8691 3.561C10.2175 3.93347 9.67644 4.47233 9.30122 5.12252L2.59345 16.6425C2.21809 17.2805 2.02015 18.0073 2.02015 18.7475C2.02015 19.4878 2.21809 20.2146 2.59345 20.8525C2.96484 21.5105 3.50564 22.0569 4.15962 22.435C4.8136 22.8131 5.55689 23.0091 6.31221 23.0025H19.7078C20.4648 23.0109 21.2102 22.8157 21.8661 22.4376C22.522 22.0594 23.0643 21.512 23.4365 20.8525C23.8119 20.2146 24.0098 19.4878 24.0098 18.7475C24.0098 18.0073 23.8119 17.2805 23.4365 16.6425L16.7188 5.12252C16.3435 4.47233 15.8025 3.93347 15.1509 3.561C14.4993 3.18852 13.7605 2.9958 13.01 3.00252V3.00252Z" fill="#F44336"/>
<path d="M15.0093 8.00253C14.7696 7.70238 14.4654 7.46006 14.1193 7.29353C13.7732 7.127 13.3941 7.04053 13.01 7.04053C12.6259 7.04053 12.2468 7.127 11.9007 7.29353C11.5546 7.46006 11.2504 7.70238 11.0107 8.00253C10.7692 8.30674 10.6019 8.66304 10.5221 9.04319C10.4423 9.42333 10.4521 9.81685 10.5508 10.1925L12.0103 16.2425C12.0645 16.4588 12.1893 16.6507 12.365 16.7878C12.5407 16.9249 12.7572 16.9994 12.98 16.9994C13.2028 16.9994 13.4193 16.9249 13.595 16.7878C13.7707 16.6507 13.8955 16.4588 13.9497 16.2425L15.4592 10.1825C15.5576 9.80909 15.5682 9.41791 15.4902 9.03968C15.4121 8.66145 15.2476 8.30645 15.0093 8.00253V8.00253ZM13.5498 9.70253L13.01 11.8825L12.4702 9.70253C12.4461 9.62047 12.4426 9.53373 12.4601 9.45C12.4775 9.36628 12.5153 9.28814 12.5701 9.22253C12.6214 9.15422 12.6878 9.09878 12.7641 9.06059C12.8405 9.02241 12.9246 9.00253 13.01 9.00253C13.0954 9.00253 13.1795 9.02241 13.2559 9.06059C13.3322 9.09878 13.3986 9.15422 13.4499 9.22253C13.5047 9.28814 13.5425 9.36628 13.5599 9.45C13.5774 9.53373 13.5739 9.62047 13.5498 9.70253V9.70253Z" fill="#F44336"/>
<path d="M13.0105 21.0025C13.8389 21.0025 14.5105 20.3309 14.5105 19.5025C14.5105 18.6741 13.8389 18.0025 13.0105 18.0025C12.1821 18.0025 11.5105 18.6741 11.5105 19.5025C11.5105 20.3309 12.1821 21.0025 13.0105 21.0025Z" fill="#F44336"/>
</svg>
